<svg xmlns="http://www.w3.org/2000/svg" width="245" height="78" viewBox="0 0 245 78" fill="none"><path d="M33.6249 0.123047L0 19.5834V58.4302L33.6249 77.8772L67.2396 58.4302V19.5834L33.6249 0.123047ZM48.5196 58.4672C48.3853 59.015 48.2442 59.5394 48.1065 60.0435L47.7304 59.5394V53.7181L46.9008 53.0291C46.9512 51.0192 46.8505 49.0093 46.6053 47.0162L48.5599 48.6227L48.523 58.4638L48.5196 58.4672ZM45.6347 61.1627C45.7522 60.7762 45.8429 60.4233 45.947 59.9931L47.5524 61.956C47.5322 62.0702 47.4986 62.1778 47.4483 62.282L47.1897 63.0214L45.6347 61.1627ZM46.0411 59.6234C46.5079 57.5933 46.7799 55.5229 46.8538 53.4391L47.3777 53.876V59.6536L47.999 60.3931C47.8815 60.8065 47.7539 61.1997 47.6363 61.5997L46.0377 59.6234H46.0411ZM48.8319 57.143V48.4849L46.5146 46.5658C46.3601 45.4264 46.1754 44.2836 45.9605 43.188L50.0746 46.0314C50.0611 49.7688 49.6447 53.4929 48.8319 57.1396V57.143ZM45.8731 42.7544C45.1477 39.3463 44.1939 35.9886 43.0185 32.7049L41.1982 27.5222L35.1899 48.8849H32.2311L24.9197 29.2027L19.5462 48.8849H17.4673L11.3852 33.851H13.4943L17.8166 41.2554L23.0424 21.0387H25.9441L33.5006 38.0052L41.131 17.6105H44.0898C44.8287 19.5565 46.5751 24.7863 48.8555 35.1921C49.6212 38.6169 50.0343 42.1158 50.0846 45.6247L45.8832 42.751L45.8731 42.7544Z" fill="white"></path><path d="M82.9377 54.3285L89.2416 22.1533L99.6024 45.4117L110.235 22.1533L115.881 54.3285H111.243L108.395 36.2663L99.4345 55.7132L90.82 36.2528L87.6094 54.3285H82.9411H82.9377Z" fill="white"></path><path d="M134.121 41.4053L124.368 24.375H129.546L136.391 36.3336L143.259 24.4052H148.438L138.641 41.4356V54.3285H134.121V41.4053Z" fill="white"></path><path d="M172.672 47.0619H159.863L156.505 54.3251H151.635L166.473 22.5566L180.702 54.3991H175.765L172.672 47.0619V47.0619ZM170.839 42.7901L166.473 32.6364L161.835 42.8169L170.839 42.7867V42.7901Z" fill="white"></path><path d="M190.452 54.3285V22.3684L212.252 45.1528V24.4186H216.766V56.1501L194.929 33.3791V54.3285H190.452V54.3285Z" fill="white"></path><path d="M238.142 28.6469V54.2848H233.628V28.6469H226.754V24.375H245V28.6469H238.142Z" fill="white"></path></svg>